<svg width="207" height="68" viewBox="0 0 207 68" fill="none" xmlns="http://www.w3.org/2000/svg">
<path d="M0 50C0 47.2386 2.23858 45 5 45H13.75C16.5114 45 18.75 47.2386 18.75 50V62.5C18.75 65.2614 16.5114 67.5 13.75 67.5H5C2.23858 67.5 0 65.2614 0 62.5V50Z" fill="black"/>
<path d="M37.5 27.5C37.5 24.7386 39.7386 22.5 42.5 22.5H51.25C54.0114 22.5 56.25 24.7386 56.25 27.5V62.5C56.25 65.2614 54.0114 67.5 51.25 67.5H42.5C39.7386 67.5 37.5 65.2614 37.5 62.5V27.5Z" fill="#FEBD5C"/>
<path d="M75 42.5C75 39.7386 77.2386 37.5 80 37.5H88.75C91.5114 37.5 93.75 39.7386 93.75 42.5V62.5C93.75 65.2614 91.5114 67.5 88.75 67.5H80C77.2386 67.5 75 65.2614 75 62.5V42.5Z" fill="black"/>
<path d="M112.5 5C112.5 2.23858 114.739 0 117.5 0H126.25C129.011 0 131.25 2.23858 131.25 5V62.5C131.25 65.2614 129.011 67.5 126.25 67.5H117.5C114.739 67.5 112.5 65.2614 112.5 62.5V5Z" fill="#FEBD5C"/>
<path d="M150 20C150 17.2386 152.239 15 155 15H163.75C166.511 15 168.75 17.2386 168.75 20V62.5C168.75 65.2614 166.511 67.5 163.75 67.5H155C152.239 67.5 150 65.2614 150 62.5V20Z" fill="#FEBD5C"/>
<path d="M187.5 42.5C187.5 39.7386 189.739 37.5 192.5 37.5H201.25C204.011 37.5 206.25 39.7386 206.25 42.5V62.5C206.25 65.2614 204.011 67.5 201.25 67.5H192.5C189.739 67.5 187.5 65.2614 187.5 62.5V42.5Z" fill="black"/>
</svg>
